<?xml version="1.0" encoding="utf-8"?>
<!-- Generator: Adobe Illustrator 21.1.0, SVG Export Plug-In . SVG Version: 6.00 Build 0)  -->
<svg version="1.1" id="Layer_1" xmlns="http://www.w3.org/2000/svg" xmlns:xlink="http://www.w3.org/1999/xlink" x="0px" y="0px"
	 width="50px" height="50px" viewBox="0 0 50 50" style="enable-background:new 0 0 50 50;" xml:space="preserve">
<style type="text/css">
	.st0{fill:#FFFFFF;}
</style>
<g>
	<g>
		<g>
			<path class="st0" d="M22.6,41.4c-1.1-0.2-1.9-1.3-1.6-2.4l1.4-7.7l-7.3-4.8c-1-0.6-1.2-1.9-0.6-2.9c0.6-1,1.9-1.2,2.9-0.6
				l8.4,5.5c0.7,0.5,1,1.3,0.9,2.1L25,39.8c-0.2,1-1,1.7-2,1.7C22.9,41.5,22.8,41.5,22.6,41.4z"/>
			<path class="st0" d="M29.8,22.1L20,16.6c-1-0.6-1.4-1.8-0.8-2.8c0.6-1,1.8-1.4,2.8-0.8l9.8,5.4c1,0.6,1.4,1.8,0.8,2.8
				c-0.4,0.7-1.1,1.1-1.8,1.1C30.5,22.3,30.2,22.2,29.8,22.1z"/>
			<path class="st0" d="M15.5,26.7c-1.5-0.7-2.1-2.4-1.4-3.9l3.9-8.3c0.7-1.5,2.4-2.1,3.9-1.4c1.5,0.7,2.1,2.4,1.4,3.9l-3.9,8.3
				c-0.5,1.1-1.6,1.7-2.7,1.7C16.3,27,15.9,26.9,15.5,26.7z"/>
		</g>
		<circle class="st0" cx="23.1" cy="8.7" r="3.2"/>
	</g>
	<path class="st0" d="M39.2,40.6l-5.5-11.7c0,0,0-0.1,0-0.1l-0.8-4.1c-0.1-0.3,0.1-0.5,0.3-0.6c1-0.5,2.2-1.6,2.1-2.2
		c0-0.2-0.3-0.9-3.5-1.4c-0.3,0-0.6-0.4-0.5-0.7c0-0.3,0.4-0.6,0.7-0.5c2.9,0.4,4.3,1.2,4.5,2.4c0.3,1.4-1.5,2.7-2.4,3.2l0.7,3.6
		l5.4,11.6c0.1,0.3,0,0.7-0.3,0.8c-0.1,0-0.2,0.1-0.3,0.1C39.5,41,39.3,40.8,39.2,40.6z"/>
	<path class="st0" d="M29.7,40c0-5.5,4.5-10,10-10c5.5,0,10,4.5,10,10c0,5.5-4.5,10-10,10C34.2,50,29.7,45.5,29.7,40z M31.4,40
		c0,4.6,3.8,8.4,8.4,8.4c4.6,0,8.4-3.8,8.4-8.4s-3.8-8.4-8.4-8.4C35.1,31.6,31.4,35.3,31.4,40z"/>
	<path class="st0" d="M0.2,39.9c0-5.5,4.5-10,10-10c5.5,0,10,4.5,10,10c0,5.5-4.5,10-10,10C4.7,49.9,0.2,45.4,0.2,39.9z M1.8,39.9
		c0,4.6,3.8,8.4,8.4,8.4c4.6,0,8.4-3.8,8.4-8.4c0-4.6-3.8-8.4-8.4-8.4C5.6,31.5,1.8,35.2,1.8,39.9z"/>
	<path class="st0" d="M23.1,41.2l-12.9-0.6c-0.2,0-0.4-0.1-0.5-0.3c-0.1-0.2-0.1-0.4-0.1-0.5C15.3,23.1,33.8,26,34,26
		c0.3,0.1,0.6,0.4,0.5,0.7c-0.1,0.3-0.4,0.5-0.7,0.5c0,0-4.5-0.7-9.5,0.5c-6.4,1.6-10.9,5.5-13.2,11.6l11.6,0.5
		c1-2.1,5.7-12,11.7-11.6c0.3,0,0.6,0.3,0.6,0.6s-0.3,0.6-0.6,0.6c-5.7-0.4-10.7,11.1-10.7,11.2C23.6,41,23.4,41.2,23.1,41.2
		C23.1,41.2,23.1,41.2,23.1,41.2z"/>
	<path class="st0" d="M23.1,41.3"/>
	<path class="st0" d="M22.2,40.6l-4.8-13c-0.1-0.3,0-0.7,0.4-0.8c0.3-0.1,0.7,0,0.8,0.4l4.8,13c0.1,0.3,0,0.7-0.4,0.8
		c-0.1,0-0.1,0-0.2,0C22.5,41,22.3,40.8,22.2,40.6z"/>
	<path class="st0" d="M10.7,39.5"/>
</g>
</svg>
