<?xml version="1.0" encoding="utf-8"?>
<!-- Generator: Adobe Illustrator 21.1.0, SVG Export Plug-In . SVG Version: 6.00 Build 0)  -->
<svg version="1.1" id="Layer_1" xmlns="http://www.w3.org/2000/svg" xmlns:xlink="http://www.w3.org/1999/xlink" x="0px" y="0px"
	 width="50px" height="50px" viewBox="0 0 50 50" style="enable-background:new 0 0 50 50;" xml:space="preserve">
<style type="text/css">
	.st0{fill:#FFFFFF;}
</style>
<path class="st0" d="M29.8,8.7c2.1,0,3.9-1.7,3.9-3.9c0-2.1-1.8-3.9-3.9-3.9c-2.1,0-3.9,1.8-3.9,3.9C25.9,7,27.7,8.7,29.8,8.7z
	 M32.8,18.5c-0.9-2.7-1.9-5.4-2.8-8.1c-0.1-0.1-0.1-0.1-0.2-0.2c-1.1-1.1-2.2-1.6-3.3-1.6c-2.9-0.1-4.7,2.1-6,5.2l2.3-6.3
	C22,6.7,21,6.3,19.7,6.2C18,9.8,16.6,13.3,14.9,17c0.5,1.3,1.5,1.9,3.3,1.3c0.4-0.1,0.9-1.2,0.3-0.1c-0.5,1.6-1.1,3.4-1.3,5
	c0.1,1.3,0.4,2.5,1.1,3.5l-6.4,21l1.3,1.1l1.5,1.2l8.2-17.3l3.5,4.2l0.9,4.3l-4.3,7.7l2.1,0.2l2.8-4.5l1.2,5.1l0.8-0.2l3.6-0.9
	l-2-10.4l7.2-12.3l1.2,0.4l1.1-2.2L32.8,18.5z M30.8,34.8l-1.1-2.2L26,24.5c0.5-1.6,1.3-3.2,2.6-4.8c0.4,0.6,0.8,1.2,1.2,1.8
	c0,0,0.1,0.1,0.1,0.1l6.8,3.5L30.8,34.8z"/>
</svg>
