<?xml version="1.0" encoding="utf-8"?>
<!-- Generator: Adobe Illustrator 21.1.0, SVG Export Plug-In . SVG Version: 6.00 Build 0)  -->
<svg version="1.1" id="Layer_1" xmlns="http://www.w3.org/2000/svg" xmlns:xlink="http://www.w3.org/1999/xlink" x="0px" y="0px"
	 width="50px" height="50px" viewBox="0 0 50 50" style="enable-background:new 0 0 50 50;" xml:space="preserve">
<style type="text/css">
	.st0{fill:#FFFFFF;}
</style>
<g>
	<g>
		<g>
			<path class="st0" d="M5.4,20.9c0,0-0.7-0.8-1.1-1.5c-0.2-0.5-0.7-1.2-0.7-1.6c0-0.4,0.4-1.4,0.8-1.5c0.4-0.2,0.6,0.2,0.9,0.5
				c0.2,0.4,14.3,17.3,14.3,17.3L28.4,45c0,0,1.2,1.5,1.9,2c0.6,0.5,1.9,1.2,1.9,1.6c0.1,0.4-0.6,0.4-1,0.4c-0.4,0-1.4-0.3-2-0.9
				C28.5,47.6,5.4,20.9,5.4,20.9z"/>
			<ellipse transform="matrix(0.9879 -0.1549 0.1549 0.9879 -0.3123 4.1495)" class="st0" cx="26.5" cy="4.1" rx="3.5" ry="3.5"/>
			<path class="st0" d="M43.7,2.4c-0.2-1-1.1-1.7-2.1-1.5c-0.2,0-0.4,0.1-0.6,0.2l-5.8,3c-0.2,0.1-0.5,0.3-1.6,1.1
				c-0.8,0.6-2.4,1.8-2.8,1.9c-0.5,0.2-2.8,0.7-7,1.7c-0.5,0.1-0.9,0.2-1,0.2c-1,0.2-5.3,2.6-6.2,3.3c-0.8,0.6-3.8,3.9-4.7,4.9
				c-0.7,0.8-0.6,1.9,0.1,2.6c0.4,0.4,1,0.5,1.5,0.5c0.4-0.1,0.8-0.3,1.1-0.6c1.7-1.9,3.8-4.1,4.2-4.5c0.4-0.3,2-1.2,3.3-1.9
				l-0.8,2.3l-3.1,2.2l-6.8,6c-1,0.9-1,2.3-0.2,3.3c0.9,1,2.3,1,3.3,0.2l6.5-5.8l1.5-1l1.5,0.9c1,2.6,2.1,5.4,2.5,6.5
				c-0.6,1.5-2.6,5.9-4.5,9.7c-0.6,1.2-0.1,2.5,1.1,3.1c0.4,0.2,0.9,0.3,1.4,0.2c0.7-0.1,1.4-0.6,1.7-1.3
				c5.2-10.6,5.1-11.2,5.1-11.9c0-0.4-0.1-1.1-3.2-8.8l-0.2-0.5l4.3-8c0.1,0,0.1-0.1,0.2-0.1c0.7-0.3,1.8-1.1,3.5-2.3
				c0.5-0.3,1-0.8,1.1-0.8l5.7-3C43.3,4.1,43.8,3.3,43.7,2.4z"/>
		</g>
	</g>
</g>
</svg>
