<?xml version="1.0" encoding="utf-8"?>
<!-- Generator: Adobe Illustrator 21.1.0, SVG Export Plug-In . SVG Version: 6.00 Build 0)  -->
<svg version="1.1" id="Layer_1" xmlns="http://www.w3.org/2000/svg" xmlns:xlink="http://www.w3.org/1999/xlink" x="0px" y="0px"
	 width="50px" height="50px" viewBox="0 0 50 50" style="enable-background:new 0 0 50 50;" xml:space="preserve">
<style type="text/css">
	.st0{fill:#FFFFFF;}
</style>
<path class="st0" d="M47,44.5c-0.9-0.4-2-0.7-3.1-0.7c-1.1,0-2.2,0.3-3.1,0.7c-0.9,0.4-2,0.7-3,0.7c-1.1,0-2.1-0.3-3-0.7
	c-1-0.4-2-0.7-3.1-0.7c-1.1,0-2.2,0.3-3.1,0.7c-0.9,0.4-2,0.7-3,0.7c-1.1,0-2.1-0.3-3.1-0.7c-1-0.4-2-0.7-3.1-0.7
	c-1.1,0-2.2,0.3-3.1,0.7c-0.9,0.4-2,0.7-3.1,0.7c-1.1,0-2.1-0.3-3-0.7c-1-0.4-2-0.7-3.1-0.7c-1.1,0-2.2,0.3-3.1,0.7
	c-0.9,0.4-2,0.7-3.1,0.7v4.6c1.1,0,2.1-0.2,3.1-0.7c1-0.4,2-0.7,3.1-0.7c1.1,0,2.2,0.3,3.1,0.7c0.9,0.4,2,0.7,3,0.7
	c1.1,0,2.1-0.2,3.1-0.7c1-0.4,2-0.7,3.1-0.7c1.1,0,2.2,0.3,3.1,0.7c0.9,0.4,2,0.7,3.1,0.7c1.1,0,2.1-0.2,3-0.7c1-0.4,2-0.7,3.1-0.7
	c1.1,0,2.2,0.3,3.1,0.7c0.9,0.4,2,0.7,3,0.7c1.1,0,2.1-0.2,3-0.7c0.9-0.4,2-0.7,3.1-0.7c1.1,0,2.2,0.3,3.1,0.7c0.9,0.4,2,0.7,3,0.7
	v-4.6C48.9,45.1,47.9,44.9,47,44.5z M36.9,30.7c0,3.3,2.4,6,5.9,6c3.3,0,5.9-2.7,5.9-6c0-3.3-2.6-6-5.9-6
	C39.6,24.7,36.9,27.4,36.9,30.7z M9.8,40.5c0.9,0.4,2,0.7,3,0.7c1.1,0,2.1-0.3,3.1-0.7c1-0.4,2-0.7,3.1-0.7c1.1,0,2.2,0.3,3.1,0.7
	c0.9,0.4,2,0.7,3.1,0.7c1.1,0,2.1-0.3,3-0.7c1-0.4,2-0.7,3.1-0.7c1.1,0,2.2,0.3,3.1,0.7c0.9,0.4,2,0.7,3,0.7c0.8,0,1.6-0.1,2.3-0.4
	l-9.8-17.9l11.4-2.1c1.7-0.3,2.9-1.7,2.9-3.4c0-1.9-1.5-3.4-3.4-3.4c-0.1,0-0.3,0-0.4,0L23,17.3c-1.2,0.3-2.9,2.1-1.9,4.4
	c0.1,0.1,0.1,0.2,0.2,0.4l4.6,8.4L8.5,40C9,40.1,9.4,40.3,9.8,40.5z"/>
</svg>
