<?xml version="1.0" encoding="utf-8"?>
<!-- Generator: Adobe Illustrator 21.1.0, SVG Export Plug-In . SVG Version: 6.00 Build 0)  -->
<svg version="1.1" id="Layer_1" xmlns="http://www.w3.org/2000/svg" xmlns:xlink="http://www.w3.org/1999/xlink" x="0px" y="0px"
	 width="50px" height="50px" viewBox="0 0 50 50" style="enable-background:new 0 0 50 50;" xml:space="preserve">
<style type="text/css">
	.st0{fill:#FFFFFF;}
</style>
<path class="st0" d="M42.8,8.6L42.8,8.6c1.9-1.4,2.2-4.1,0.8-6c-1.4-1.9-4.1-2.2-6-0.8c-1.9,1.4-2.2,4.1-0.8,6
	C38.3,9.7,40.9,10.1,42.8,8.6z M42.1,45.5c-0.6,1.5-2.3,2.3-3.8,1.8l-11.2-4.1l5.3-8.5c1.5-2.4,0.8-5.4-1.4-7l-3.6-2.5l3.4-4.2
	l-6.5-2.4l-2.9,4c-1.6,2.1-1.1,5.1,1.1,6.6l4.2,2.9c0.8,0.5,1,1.6,0.4,2.4l-4.8,7L5.6,35.3l-0.7,1.9l32.7,11.9
	c2.6,0.9,5.4-0.4,6.3-3l0.3-0.7l-1.9-0.7L42.1,45.5z M43.6,19.1l-7.5-2.7l0.9-2.5c0.8-1.9-0.1-4.1-2-4.9c-0.4-0.2-0.9-0.3-1.3-0.3
	l0,0c-1.3,0-2.6,0.6-3.4,1.7l-3.7,5l-11.1-4L16,10l-1.9-0.7l-0.5,1.3l-3.1-1.1l-0.7,1.9l3.1,1.1l-0.5,1.3l1.9,0.7l0.5-1.3
	c0,0,18.3,6.6,27.3,9.9c1,0.4,2.2-0.2,2.5-1.2l0.1-0.3C45.2,20.6,44.6,19.4,43.6,19.1z"/>
</svg>
