<?xml version="1.0" encoding="utf-8"?>
<!-- Generator: Adobe Illustrator 21.1.0, SVG Export Plug-In . SVG Version: 6.00 Build 0)  -->
<svg version="1.1" id="Layer_1" xmlns="http://www.w3.org/2000/svg" xmlns:xlink="http://www.w3.org/1999/xlink" x="0px" y="0px"
	 width="50px" height="50px" viewBox="0 0 50 50" style="enable-background:new 0 0 50 50;" xml:space="preserve">
<style type="text/css">
	.st0{fill:#FFFFFF;}
</style>
<path class="st0" d="M31.4,9.6L31.4,9.6c-1.6-3.4-5.1-5.7-9.1-5.7c-5.5,0-10,4.5-10,10v17.2h1.4c0.8,0,1.4,0.6,1.4,1.4v15.8
	c0,0.8-0.6,1.4-1.4,1.4H7.9c-0.8,0-1.4-0.6-1.4-1.4V32.6c0-0.8,0.6-1.4,1.4-1.4h1.4V13.9C9.3,6.8,15.1,1,22.3,1
	c5.8,0,10.8,3.9,12.4,9.2c5.3,1.6,9.2,6.5,9.2,12.4v8.6h1.4c0.8,0,1.4,0.6,1.4,1.4v15.8c0,0.8-0.6,1.4-1.4,1.4h-5.7
	c-0.8,0-1.4-0.6-1.4-1.4V32.6c0-0.8,0.6-1.4,1.4-1.4h1.4v-8.6c0-4-2.4-7.5-5.7-9.1l0,4.8c0,4.8-3.9,8.6-8.6,8.6
	c-4.8,0-8.6-3.9-8.6-8.6c0-4.8,3.9-8.6,8.6-8.6h4.3C31,9.6,31.2,9.6,31.4,9.6C31.3,9.6,31.4,9.6,31.4,9.6z M9.3,34v2.2h2.9V34H9.3z
	 M9.3,39v2.9h2.9V39H9.3z M9.3,44.8v2.2h2.9v-2.2H9.3z M40.9,34v2.2h2.9V34H40.9z M40.9,39v2.9h2.9V39H40.9z M40.9,44.8v2.2h2.9
	v-2.2H40.9z M30.9,12.5h-4.3c-3.2,0-5.7,2.6-5.7,5.7c0,3.2,2.6,5.7,5.7,5.7c3.2,0,5.7-2.6,5.7-5.7v-4.3c0-0.5,0-0.9-0.1-1.3
	C31.8,12.5,31.3,12.5,30.9,12.5z"/>
</svg>
