<?xml version="1.0" encoding="utf-8"?>
<!-- Generator: Adobe Illustrator 21.1.0, SVG Export Plug-In . SVG Version: 6.00 Build 0)  -->
<svg version="1.1" id="Layer_1" xmlns="http://www.w3.org/2000/svg" xmlns:xlink="http://www.w3.org/1999/xlink" x="0px" y="0px"
	 width="50px" height="50px" viewBox="0 0 50 50" style="enable-background:new 0 0 50 50;" xml:space="preserve">
<style type="text/css">
	.st0{fill:#FFFFFF;}
</style>
<path class="st0" d="M17.7,39.4L7.7,29.7c-1.6,5.2,2.1,9.7,2.1,9.7H17.7z M20.5,39.4h23.6c3.9-5.3-3.9-6.9-7.4-8.2
	c-1-0.4-1.9-0.7-2.9-1.2c-0.1,0-0.2,0-0.3,0h-6.4c-0.6,0-1-0.5-1-1c0-0.6,0.5-1,1-1h3.2c-0.7-0.5-1.3-1-1.8-1.6h-5.8
	c-0.6,0-1-0.5-1-1c0-0.6,0.5-1,1-1h4.2c-0.3-0.5-0.6-1-0.8-1.6h-5.8c-0.6,0-1-0.5-1-1c0-0.6,0.5-1,1-1h5.1c-0.2-0.5-0.4-1.1-0.6-1.6
	h-6.2c-0.6,0-1-0.5-1-1c0-0.6,0.5-1,1-1h5.4c-0.9-2.3-1.8-4.7-2.6-7l-4.4,3.2H9.5c2.3,3.6-0.1,11.2-1.2,14.3L20.5,39.4z M43.8,40.9
	H10.1l-1.2,4.4c-5.3,0.1-5.8,2-5.8,2v2.4h37.2c7.8-0.9,7.7-4.6,7.7-4.6L43.8,40.9z M32.8,46.9H13.7v-3.2h23.9
	C37.7,43.7,38.4,46.7,32.8,46.9z"/>
</svg>
