<?xml version="1.0" encoding="utf-8"?>
<!-- Generator: Adobe Illustrator 21.1.0, SVG Export Plug-In . SVG Version: 6.00 Build 0)  -->
<svg version="1.1" id="Layer_1" xmlns="http://www.w3.org/2000/svg" xmlns:xlink="http://www.w3.org/1999/xlink" x="0px" y="0px"
	 width="50px" height="50px" viewBox="0 0 50 50" style="enable-background:new 0 0 50 50;" xml:space="preserve">
<style type="text/css">
	.st0{fill:#FFFFFF;}
</style>
<path class="st0" d="M31.5,12.4c1.5,0.1,2.7-1.1,2.8-2.6c0.1-1.5-1.1-2.7-2.6-2.8c-1.5-0.1-2.7,1.1-2.8,2.6
	C28.9,11.1,30,12.3,31.5,12.4z M47.3,45.3c-3.1,0.4-6.6,0.2-15.8,0.2c0,0,0,0-0.1-0.1c-0.1,0-0.2-0.1-0.5-0.2
	c-0.5-0.2-1.7-0.6-1.9-1.2c-0.3-0.9,0.4-4.6,1.3-6.6c0.9-2.1,1.7-3.6,1.7-3.6l0-0.1l0.6-2.7c0-0.3,0.7-7,0.7-8c0-0.1,0-0.2,0-0.2
	l1.1-0.7c1.7-0.1,3.9-1.6,4.3-2c1.2-0.2,1.8-1.2,1.8-2c0-0.6-0.5-0.9-1-0.9c-0.5,0-1.1,0.3-1.7,0.8c-0.9,0.7-1.7,1-2.5,1
	c-0.6,0-1-0.2-1.2-0.3c-0.1-0.4-0.3-1.4-0.5-3.4c-0.1-1.5-1.1-2.3-2.6-2.3c-0.8,0-1.5,0.2-1.5,0.2l-0.1,0l-0.1,0.1
	c0,0-1.9,2.2-3.8,4.3c-2.1,2.4-1.1,4.1-1.1,4.1l2.5,4.6L12.3,36.7c-0.5-0.2-1.3-0.2-2.2,0.3c0,0-4,2-5.9,3.1c-1.9,1-0.9,2.4-0.9,2.4
	s0.1,0.3,1.2,2.3c1.1,2,2.6,0.3,2.6,0.3s3.1-3,5-5.4c0.9-1.1,1-2,0.6-2.5l14.5-10l0,0l0,3.3c0.2,4.3-0.7,5.7-0.8,5.7
	c-1.3,2.3-1.6,5.2-1.8,7.6c0,0.5-0.1,1-0.2,1.5c0,0.2,0,0.3,0,0.4c-9.8,0.2-18.7,0.5-19.8,0.6c-4,0.2-7.9,1.5,0.3,2.6
	c8.1,1.1,26.9,1.4,32.7,0.8c5.8-0.5,8.8-1.2,10.8-2.7C50.6,45.5,50.7,44.9,47.3,45.3z M27.6,22.3l-0.4-0.8l-0.1-0.1
	c0,0-0.2-0.2-0.2-0.5c0-0.4,0.2-0.8,0.5-1.2l0.6-0.5L27.6,22.3z"/>
</svg>
