<?xml version="1.0" encoding="utf-8"?>
<!-- Generator: Adobe Illustrator 21.1.0, SVG Export Plug-In . SVG Version: 6.00 Build 0)  -->
<svg version="1.1" id="Layer_1" xmlns="http://www.w3.org/2000/svg" xmlns:xlink="http://www.w3.org/1999/xlink" x="0px" y="0px"
	 width="50px" height="50px" viewBox="0 0 50 50" style="enable-background:new 0 0 50 50;" xml:space="preserve">
<style type="text/css">
	.st0{fill:#FFFFFF;}
</style>
<g>
	<g>
		<path class="st0" d="M46.9,22.3l-8.3-1.7c0,0-0.6-7.5-0.7-8.5c-0.1-0.4-0.1-0.9-0.3-1.5C36,10.1,34.7,9,34,7.5
			c-0.3-0.1-0.5-0.1-0.7-0.1c-0.7,0-9.6,0.3-9.6,0.3c-0.8-0.1-1.6,0.4-1.9,1.2l-2.2,8.7c-0.3,0.9-0.2,1.5,0.9,1.7s1.4-0.3,1.6-1.1
			l2.3-7.3h4.4c-0.7,2.1-2.2,6.4-3.4,8c-1,1.4-3,3.4-3.6,5l-7.1,6.4c-0.3,0.3-0.8,0.3-1.1,0.1l-7.7-6c-1.2-1.1-2.2-1.4-3.2-0.3
			c-1,1.1-0.6,2.6,0.6,3.6l8.8,8.2c0.6,0.5,1.3,0.8,2,0.8s1.3-0.2,1.8-0.7l9.4-7.6l8.6,7.4c0.2,0.2,0.4,0.5,0.6,0.8l4.9,11.2
			c0.5,1,1.5,2.3,3,1.7c1.5-0.6,1.4-1.6,0.8-3.4l-4-12.5c-0.2-0.3-0.4-0.6-0.6-0.8l-7.5-6.9c1.7-2.2,3.6-4.9,4.4-5.9l0.5,2.6
			c0.1,0.7,0.7,1.3,1.5,1.5c0,0,9.3,1,9.4,1c0.8,0,1.2-0.2,1.3-1.1C48.1,22.9,47.9,22.4,46.9,22.3z"/>
		<circle class="st0" cx="39.5" cy="5.1" r="4.8"/>
	</g>
</g>
</svg>
