<?xml version="1.0" encoding="utf-8"?>
<!-- Generator: Adobe Illustrator 21.1.0, SVG Export Plug-In . SVG Version: 6.00 Build 0)  -->
<svg version="1.1" id="Layer_1" xmlns="http://www.w3.org/2000/svg" xmlns:xlink="http://www.w3.org/1999/xlink" x="0px" y="0px"
	 width="50px" height="50px" viewBox="0 0 50 50" style="enable-background:new 0 0 50 50;" xml:space="preserve">
<style type="text/css">
	.st0{fill:#FFFFFF;}
</style>
<g transform="translate(0,-952.36218)">
	<path class="st0" d="M5.9,978.7c-1.1,1.1-1.1,2.9,0,4.1L23,999.8c1.1,1.1,2.9,1.1,4.1,0l1.6-1.6c1.1-1.1,1.1-2.9,0-4.1L11.6,977
		c-1.1-1.1-2.9-1.1-4.1,0L5.9,978.7z M21.3,963.2c-1.1,1.1-1.1,2.9,0,4.1l17.1,17.1c1.1,1.1,2.9,1.1,4.1,0l1.6-1.6
		c1.1-1.1,1.1-2.9,0-4.1L27,961.6c-1.1-1.1-2.9-1.1-4.1,0L21.3,963.2z M4.7,984.8c-1.4,1.4-1.4,3.5,0,4.9l11.4,11.4
		c1.4,1.4,3.5,1.4,4.9,0l0.8-0.8L5.5,983.9L4.7,984.8L4.7,984.8z M28.3,961.2l16.3,16.3l0.8-0.8c1.4-1.4,1.4-3.5,0-4.9l-11.4-11.4
		c-1.4-1.4-3.5-1.4-4.9,0L28.3,961.2z M5.9,995.7c-0.2,0.2-0.2,0.6,0,0.8l3.3,3.3c0.2,0.2,0.6,0.2,0.8,0l1.6-1.6l-4.1-4.1L5.9,995.7
		z M18.9,982.7l4.1,4.1l8.1-8.1l-4.1-4.1L18.9,982.7z M38.4,963.2l4.1,4.1l1.6-1.6c0.2-0.2,0.2-0.6,0-0.8l-3.3-3.3
		c-0.2-0.2-0.6-0.2-0.8,0L38.4,963.2L38.4,963.2z"/>
</g>
</svg>
